<?xml version="1.0" encoding="UTF-8"?>
<svg version="1.1" xmlns="http://www.w3.org/2000/svg" width="48" height="48">
<path d="M0 0 C4.67947734 2.88980968 8.75735822 6.43641628 10.234375 11.89453125 C11.21348419 19.95414588 10.6328764 26.03804377 6.234375 32.89453125 C5.574375 33.55453125 4.914375 34.21453125 4.234375 34.89453125 C7.204375 35.38953125 7.204375 35.38953125 10.234375 35.89453125 C10.234375 36.88453125 10.234375 37.87453125 10.234375 38.89453125 C5.92239847 39.07030953 1.61135502 39.17588362 -2.703125 39.26953125 C-3.91548828 39.31980469 -5.12785156 39.37007812 -6.37695312 39.421875 C-14.50438767 39.55402841 -19.70663294 38.48863462 -25.765625 32.89453125 C-30.35019999 27.52722394 -30.49192865 22.30316684 -30.27734375 15.34765625 C-29.26668398 8.52763154 -25.8733783 4.69490386 -20.765625 0.33203125 C-14.5533027 -2.63607829 -6.30080884 -2.51854365 0 0 Z M-11.765625 5.89453125 C-12.095625 7.54453125 -12.425625 9.19453125 -12.765625 10.89453125 C-10.290625 11.38953125 -10.290625 11.38953125 -7.765625 11.89453125 C-7.435625 10.24453125 -7.105625 8.59453125 -6.765625 6.89453125 C-8.415625 6.56453125 -10.065625 6.23453125 -11.765625 5.89453125 Z M-21.765625 15.89453125 C-22.095625 17.54453125 -22.425625 19.19453125 -22.765625 20.89453125 C-20.290625 21.38953125 -20.290625 21.38953125 -17.765625 21.89453125 C-17.435625 20.24453125 -17.105625 18.59453125 -16.765625 16.89453125 C-18.415625 16.56453125 -20.065625 16.23453125 -21.765625 15.89453125 Z M-1.765625 15.89453125 C-2.095625 17.54453125 -2.425625 19.19453125 -2.765625 20.89453125 C-0.290625 21.38953125 -0.290625 21.38953125 2.234375 21.89453125 C2.564375 20.24453125 2.894375 18.59453125 3.234375 16.89453125 C1.584375 16.56453125 -0.065625 16.23453125 -1.765625 15.89453125 Z M-10.765625 17.89453125 C-10.765625 18.55453125 -10.765625 19.21453125 -10.765625 19.89453125 C-10.105625 19.89453125 -9.445625 19.89453125 -8.765625 19.89453125 C-8.765625 19.23453125 -8.765625 18.57453125 -8.765625 17.89453125 C-9.425625 17.89453125 -10.085625 17.89453125 -10.765625 17.89453125 Z M-11.765625 25.89453125 C-12.095625 27.54453125 -12.425625 29.19453125 -12.765625 30.89453125 C-10.290625 31.38953125 -10.290625 31.38953125 -7.765625 31.89453125 C-7.435625 30.24453125 -7.105625 28.59453125 -6.765625 26.89453125 C-8.415625 26.56453125 -10.065625 26.23453125 -11.765625 25.89453125 Z " fill="#000000" transform="translate(33.765625,5.10546875)"/>
</svg>
